<svg xmlns="http://www.w3.org/2000/svg" width="15.253" height="20" viewBox="0 0 15.253 20"><defs><style>.a{fill:#ff5d5d;}</style></defs><path class="a" d="M73.985,1.818A1.025,1.025,0,0,1,75.047.786h4.364a1.025,1.025,0,0,1,1.061,1.032v1.13h.786V1.818A1.811,1.811,0,0,0,79.411,0H75.047A1.811,1.811,0,0,0,73.2,1.818v1.13h.786Zm0,0" transform="translate(-69.602)"/><path class="a" d="M29.791,137.907h9.3a1.674,1.674,0,0,0,1.592-1.769V124H28.2v12.138a1.674,1.674,0,0,0,1.592,1.769Zm7.155-12.03a.393.393,0,1,1,.786,0v9.287a.393.393,0,1,1-.786,0Zm-2.9,0a.393.393,0,0,1,.786,0v9.287a.393.393,0,1,1-.786,0Zm-2.9,0a.393.393,0,0,1,.786,0v9.287a.393.393,0,1,1-.786,0Zm0,0" transform="translate(-26.813 -117.907)"/><path class="a" d="M.983,69.966H14.27a.983.983,0,0,0,0-1.966H.983a.983.983,0,0,0,0,1.966Zm0,0" transform="translate(0 -64.658)"/></svg>